<svg id="Layer_1" data-name="Layer 1" xmlns="http://www.w3.org/2000/svg" viewBox="0 0 385.59 99.48"><defs><style>.cls-1{fill:#e30613;}.cls-2{fill:#1d1d1b;}</style></defs><path class="cls-1" d="M221.2,337.81V325.24c0-5.2-1-9.11-2.94-11.76s-5-4-9.22-4a12.49,12.49,0,0,0-9,3.42,11.59,11.59,0,0,0-3.55,8.74,14.15,14.15,0,0,0,5.33,11.41,83,83,0,0,0,13,8.68l2.05,1.23,2.19,1.09a90.72,90.72,0,0,1,15.3,10.52q7.25,6.15,7.24,16.68Q241.56,384,231,393t-25.28,9q-15.16,0-25-8.27t-9.83-21.65a25.89,25.89,0,0,1,7.31-18.59,23.56,23.56,0,0,1,17.69-7.65q7.94,0,13.12,4.24a13.59,13.59,0,0,1,5.19,11.06,10.44,10.44,0,0,1-2.94,7.38,9.42,9.42,0,0,1-7.17,3.15h-2.05l-1.23-.41.66-2.92a7.2,7.2,0,0,0,4.62-2.69,8.17,8.17,0,0,0,1.69-5.19,10.12,10.12,0,0,0-3.74-7.67,12.84,12.84,0,0,0-8.92-3.4A16.5,16.5,0,0,0,182,355.84a23.71,23.71,0,0,0-5.38,15.72q0,10.94,8.66,19a29.1,29.1,0,0,0,20.52,8.06,30.75,30.75,0,0,0,20.65-7.42c5.77-5,8.66-11,8.66-18.2a17.33,17.33,0,0,0-6.54-14.16c-2.09-1.55-4.35-3.12-6.74-4.72s-5-3.14-7.7-4.69h-.54l-.28-.27a98.19,98.19,0,0,1-15.05-9.77c-4.49-3.58-6.74-8.7-6.74-15.4a16.58,16.58,0,0,1,5.74-12.86A20.27,20.27,0,0,1,211.36,306h1a11.52,11.52,0,0,1,4.1.68,13.74,13.74,0,0,1,2.25.48,15.94,15.94,0,0,1,2.53,1v-5.6h2.6v35.26Z" transform="translate(-170.92 -302.55)"/><path class="cls-2" d="M542.57,353.78c2.63.75,3.81,3.39,4.38,6,.31,1.15.68,2.23,2,2.23,1.94,0,1.62-2.44,1.62-3V344.36c0-.54.32-3-1.62-3-1.32,0-1.69,1.08-2,2.24-.57,2.57-1.75,5.21-4.38,6Zm0-22.91c5.5.95,8.69,4.27,10.32,9.76.31,1,.62,1.7,1.68,1.7,1.88,0,1.94-1.29,1.94-1.63V327H542.57Zm-18.13,39.18c0,2.5.06,2.91-2.12,3.66a1.84,1.84,0,0,0-1.38,1.83c0,2,2.06,2.1,2.31,2.1H541c.24,0,2.31-.14,2.31-2.1a1.86,1.86,0,0,0-1.38-1.83c-2.18-.75-2.12-1.16-2.12-3.66V327H523.25c-.25,0-2.31.13-2.31,2.1a1.84,1.84,0,0,0,1.38,1.82c2.18.75,2.12,1.16,2.12,3.66ZM504,353.78c2.63.75,3.81,3.39,4.38,6,.31,1.15.68,2.23,2,2.23,1.93,0,1.62-2.44,1.62-3V344.36c0-.54.31-3-1.62-3-1.32,0-1.69,1.08-2,2.24-.57,2.57-1.75,5.21-4.38,6Zm0-22.91c5.5.95,8.69,4.27,10.31,9.76.32,1,.63,1.7,1.69,1.7,1.88,0,1.94-1.29,1.94-1.63V327H504Zm-18.13,39.18c0,2.5.06,2.91-2.13,3.66a1.85,1.85,0,0,0-1.37,1.83c0,2,2.06,2.1,2.31,2.1h17.69c.25,0,2.32-.14,2.32-2.1a1.86,1.86,0,0,0-1.38-1.83c-2.19-.75-2.12-1.16-2.12-3.66V327H484.68c-.25,0-2.31.13-2.31,2.1a1.84,1.84,0,0,0,1.37,1.82c2.19.75,2.13,1.16,2.13,3.66Zm-12.63-35.52c0-2.5-.06-2.91,2.13-3.66a1.84,1.84,0,0,0,1.37-1.82c0-2-2.06-2.1-2.31-2.1H456.74c-.25,0-2.31.13-2.31,2.1a1.84,1.84,0,0,0,1.37,1.82c2.19.75,2.13,1.16,2.13,3.66v35.52c0,2.5.06,2.91-2.13,3.66a1.85,1.85,0,0,0-1.37,1.83c0,2,2.06,2.1,2.31,2.1h17.69c.25,0,2.31-.14,2.31-2.1a1.85,1.85,0,0,0-1.37-1.83c-2.19-.75-2.13-1.16-2.13-3.66Zm-45.88-3.59c3.12,1.22,3.81,2.85,3.81,6.24v8.2c0,3.32-.44,5.56-3.81,5.89v4c3.75.41,3.81,4.21,3.81,7.32v4.61c0,3.19.31,6.17,2.5,8.61a9.09,9.09,0,0,0,7.06,2.84,9.83,9.83,0,0,0,7.07-2.43c1.37-1.16,3.44-3.67,3.44-5.63a2.15,2.15,0,0,0-1.82-2c-1.5,0-1.68,2-2.68,2-.82,0-.63-1.36-.63-2v-6c-.12-7.18-5.44-9-11-9.83v-.13c6.38-1.63,11.13-5,11-12.81-.06-5.15-2.19-8.88-6.38-11.11-3.75-2-8-1.83-12.06-1.83h-.31Zm-18.13,39.11c0,2.5.06,2.91-2.13,3.66a1.85,1.85,0,0,0-1.37,1.83c0,2,2.06,2.1,2.31,2.1h17.69c.25,0,2.31-.14,2.31-2.1a1.85,1.85,0,0,0-1.37-1.83c-2.19-.75-2.13-1.16-2.13-3.66V327H408c-.25,0-2.31.13-2.31,2.1a1.84,1.84,0,0,0,1.37,1.82c2.19.75,2.13,1.16,2.13,3.66Zm-26.7-.34c.57,2.64.32,3.12-1.31,4.13a1.85,1.85,0,0,0-1.19,1.9c0,1.76,1.82,1.9,3.07,1.9h15.56c1.19,0,3.44.07,3.44-1.76a2.14,2.14,0,0,0-1.56-2.1c-1.75-.82-1.82-2.11-2.19-4L389,327H375.16l-.82,3.65,6.32,30H373l-.87,3.93h9.12ZM373,336.43h-.19l-7.5,29.75c-1.19,4.82-2.88,6.37-4.19,7.12s-2.44.68-2.44,2.3c0,2,2.25,2,3.5,2h7.19c1.25,0,3.25.07,3.25-1.83,0-1.36-.87-1.76-1.87-2.24-2.13-1-3-2.17-2-6.3l5.87-23.18Zm-36.13,33.62c0,2.5.06,2.91-2.13,3.66a1.85,1.85,0,0,0-1.37,1.83c0,2,2.06,2.1,2.31,2.1h17.69c.25,0,2.31-.14,2.31-2.1a1.85,1.85,0,0,0-1.37-1.83c-2.19-.75-2.13-1.16-2.13-3.66V334.53c0-2.5-.06-2.91,2.13-3.66a1.84,1.84,0,0,0,1.37-1.82c0-2-2.06-2.1-2.31-2.1H335.65c-.25,0-2.31.13-2.31,2.1a1.84,1.84,0,0,0,1.37,1.82c2.19.75,2.13,1.16,2.13,3.66v15.39h-5.5v3.93h5.5Zm-8.32-35.52c0-2.5-.06-2.91,2.13-3.66a1.84,1.84,0,0,0,1.37-1.82c0-2-2.06-2.1-2.31-2.1H312c-.25,0-2.32.13-2.32,2.1a1.85,1.85,0,0,0,1.38,1.82c2.19.75,2.13,1.16,2.13,3.66v35.52c0,2.5.06,2.91-2.13,3.66a1.86,1.86,0,0,0-1.38,1.83c0,2,2.07,2.1,2.32,2.1h17.69c.25,0,2.31-.14,2.31-2.1a1.85,1.85,0,0,0-1.37-1.83c-2.19-.75-2.13-1.16-2.13-3.66Zm-59.2,41c0,.34,0,2.84,1.94,2.84,1.56,0,1.37-2.23,3.37-2.23,2.25,0,3.44,2.37,8.88,2.5v-3.93c-5.5-1.22-9-7.92-9.88-13.35a2.48,2.48,0,0,0-2.31-2.23c-1.75,0-2,1.89-2,3.32ZM302,329c0-.54.13-2.85-1.81-2.85-1.62,0-1.5,2.44-3.13,2.44-.68,0-4.87-2.57-8.81-2.64v3.93c4.88,1.15,8.75,6.3,9.44,11.32.19,1.35.75,2.64,2.25,2.64,1.81,0,2.06-1.7,2.06-3.25Zm-16.56-3.05c-9.19.34-16.07,6.71-16.07,17,0,10.64,7.32,14.5,15.19,18.09,3,1.43,7.63,3.19,7.5,7.46-.12,3.73-2.69,5.22-5.69,6.23v3.93c9.26-.2,17.32-7,17.32-17.55,0-6.23-2.5-12.6-13.57-17.21-7.43-3.12-9.12-5.15-9.12-8.47,0-2.78,2.06-4.68,4.44-5.56Z" transform="translate(-170.92 -302.55)"/></svg>