<svg width="24" xmlns="http://www.w3.org/2000/svg" height="24" id="screenshot-3849bc3d-4437-8019-8004-fc65e0919132" viewBox="0 0 24 24" xmlns:xlink="http://www.w3.org/1999/xlink" fill="none" version="1.1"><g id="shape-3849bc3d-4437-8019-8004-fc65e0919132"><g class="frame-container-wrapper"><g class="frame-container-blur"><g class="frame-container-shadows"><g fill="none"><g class="fills" id="fills-3849bc3d-4437-8019-8004-fc65e0919132"><rect rx="0" ry="0" x="0" y="0" width="24" height="24" transform="matrix(1.000000, 0.000000, 0.000000, 1.000000, 0.000000, 0.000000)" class="frame-background"/></g><g class="frame-children"><g id="shape-3849bc3d-4437-8019-8004-fc65e09110ef" width="24" class="feather feather-shopping-bag" height="24" rx="0" ry="0" style="fill: rgb(0, 0, 0);"><g id="shape-3849bc3d-4437-8019-8004-fc65e09110f9" style="display: none;"><g class="fills" id="fills-3849bc3d-4437-8019-8004-fc65e09110f9"><rect width="24" height="24" x="0" stroke-linejoin="round" transform="matrix(1.000000, 0.000000, 0.000000, 1.000000, 0.000000, 0.000000)" style="fill: none;" ry="0" fill="none" rx="0" y="0"/></g><g fill="none" stroke-linejoin="round" id="strokes-9afda279-33d2-80eb-8008-3e6604b6d5b1-3849bc3d-4437-8019-8004-fc65e09110f9" class="strokes"><g class="stroke-shape"><rect rx="0" ry="0" x="0" y="0" transform="matrix(1.000000, 0.000000, 0.000000, 1.000000, 0.000000, 0.000000)" width="24" height="24" style="fill: none; stroke-width: 2; stroke: rgb(0, 0, 0); stroke-opacity: 1;"/></g></g></g><g id="shape-3849bc3d-4437-8019-8004-fc65e09171f4"><g class="fills" id="fills-3849bc3d-4437-8019-8004-fc65e09171f4"><path d="M6,2L3,6L3,20C3,21.1044921875,3.895416259765625,22,5,22L19,22C20.10455322265625,22,21,21.1044921875,21,20L21,6L18,2Z" fill="none" stroke-linejoin="round" style="fill: none;"/></g><g fill="none" stroke-linejoin="round" id="strokes-9afda279-33d2-80eb-8008-3e6604b7cbab-3849bc3d-4437-8019-8004-fc65e09171f4" class="strokes"><g class="stroke-shape"><path d="M6,2L3,6L3,20C3,21.1044921875,3.895416259765625,22,5,22L19,22C20.10455322265625,22,21,21.1044921875,21,20L21,6L18,2Z" style="fill: none; stroke-width: 2; stroke: rgb(0, 0, 0); stroke-opacity: 1;"/></g></g></g><g id="shape-3849bc3d-4437-8019-8004-fc65e09171f8"><g class="fills" id="fills-3849bc3d-4437-8019-8004-fc65e09171f8"><path d="M3,6L21,6" fill="none" stroke-linejoin="round" style="fill: none;"/></g><g fill="none" stroke-linejoin="round" id="strokes-9afda279-33d2-80eb-8008-3e6604b8381f-3849bc3d-4437-8019-8004-fc65e09171f8" class="strokes"><g class="stroke-shape"><path d="M3,6L21,6" style="fill: none; stroke-width: 2; stroke: rgb(0, 0, 0); stroke-opacity: 1;"/></g></g></g><g id="shape-3849bc3d-4437-8019-8004-fc65e09171f9"><g class="fills" id="fills-3849bc3d-4437-8019-8004-fc65e09171f9"><path d="M16,10C16,12.209228515625,14.209136962890625,14,12,14C9.790863037109375,14,8,12.209228515625,8,10" fill="none" stroke-linejoin="round" style="fill: none;"/></g><g fill="none" stroke-linejoin="round" id="strokes-9afda279-33d2-80eb-8008-3e6604b848cb-3849bc3d-4437-8019-8004-fc65e09171f9" class="strokes"><g class="stroke-shape"><path d="M16,10C16,12.209228515625,14.209136962890625,14,12,14C9.790863037109375,14,8,12.209228515625,8,10" style="fill: none; stroke-width: 2; stroke: rgb(0, 0, 0); stroke-opacity: 1;"/></g></g></g></g></g></g></g></g></g></g></svg>